<?xml version="1.0" encoding="UTF-8"?>
<svg version="1.1" xmlns="http://www.w3.org/2000/svg" width="711" height="468">
<path d="M0 0 C1.1604483 -0.01814758 2.32089661 -0.03629517 3.51651001 -0.05499268 C4.91186226 -0.08778824 4.91186226 -0.08778824 6.33540344 -0.12124634 C8.67398071 0.07928467 8.67398071 0.07928467 12.67398071 2.07928467 C12.67398071 7.68928467 12.67398071 13.29928467 12.67398071 19.07928467 C9.67923357 20.07753372 7.60052737 20.23252498 4.46817017 20.28460693 C2.87686028 20.31452477 2.87686028 20.31452477 1.25340271 20.345047 C0.10957626 20.36175949 -1.03425018 20.37847198 -2.21273804 20.39569092 C-3.97095634 20.42686256 -3.97095634 20.42686256 -5.76469421 20.45866394 C-9.51424215 20.52412285 -13.26386092 20.58302763 -17.01351929 20.64178467 C-19.5532402 20.68497335 -22.0929539 20.72858775 -24.63265991 20.77264404 C-30.86370451 20.87980053 -37.0948198 20.98157387 -43.32601929 21.07928467 C-44.97765259 24.38255128 -44.4122816 28.05597987 -44.36361694 31.68353271 C-44.35561569 32.57702927 -44.34761444 33.47052582 -44.33937073 34.39109802 C-44.31130236 37.37447332 -44.27580381 40.35771064 -44.24008179 43.34100342 C-44.21826834 45.44189591 -44.19682083 47.54279224 -44.17572021 49.64369202 C-44.1300481 54.08181799 -44.08088825 58.51988753 -44.02914429 62.95794678 C-43.96439125 68.52243068 -43.90646303 74.08695653 -43.85099411 79.6515398 C-43.6365828 100.98148034 -43.34874609 122.30410806 -42.75192642 143.62700653 C-42.41172736 155.81762097 -42.18409533 168.00580276 -42.04476929 180.20037842 C-42.03516552 181.03758863 -42.02556175 181.87479885 -42.01566696 182.73737907 C-41.94865359 188.66380885 -41.88676666 194.59028781 -41.82601929 200.51678467 C-41.75657694 207.28635672 -41.68479898 214.05589369 -41.60726929 220.82537842 C-41.5978833 221.64948589 -41.58849731 222.47359337 -41.5788269 223.3226738 C-41.35314249 242.57941489 -40.85913723 261.82893512 -40.32601929 281.07928467 C-40.33046051 280.00631134 -40.33490173 278.93333801 -40.33947754 277.82785034 C-40.37995991 267.73321104 -40.40997298 257.63858814 -40.42964363 247.54388618 C-40.44009634 242.35366568 -40.45428257 237.16351052 -40.47689819 231.97332764 C-40.49857367 226.96777577 -40.5105767 221.9622869 -40.51577377 216.95669174 C-40.51947908 215.04364912 -40.52671425 213.13061007 -40.5374794 211.21759415 C-40.55192402 208.54527491 -40.5540002 205.87321847 -40.55307007 203.2008667 C-40.56026062 202.40389374 -40.56745117 201.60692078 -40.57485962 200.78579712 C-40.55412361 195.30738899 -40.55412361 195.30738899 -38.32601929 193.07928467 C-34.02545754 192.09279122 -29.89435559 191.96212474 -25.49472046 191.98162842 C-24.501086 191.98379333 -24.501086 191.98379333 -23.48737812 191.98600197 C-22.04382903 191.989774 -20.60028455 191.99586673 -19.15675354 192.00401688 C-16.80687734 192.0171313 -14.45705355 192.02386337 -12.10714722 192.02908325 C-8.69566706 192.03721692 -5.28420817 192.04779246 -1.8727417 192.0604248 C7.24697887 192.09354086 16.36670422 192.11109955 25.48648071 192.11834717 C26.42817926 192.11913898 27.36987782 192.1199308 28.34011269 192.12074661 C42.87021873 192.12790358 57.39552249 192.00386301 71.92398071 191.79022217 C72.85969091 191.77674995 73.79540112 191.76327774 74.75946617 191.74939728 C83.84705337 191.61801193 92.93431646 191.47589218 102.02127266 191.30617332 C105.36670238 191.24551285 108.71222651 191.19274185 112.05781555 191.14171219 C113.61065912 191.11599684 115.16344554 191.08651685 116.71614075 191.05302048 C118.83396541 191.00743902 120.95164211 190.97429695 123.06973267 190.94403076 C124.25549393 190.92182465 125.44125519 190.89961853 126.66294861 190.8767395 C129.65467655 191.07798612 131.09943025 191.67629078 133.67398071 193.07928467 C133.67305892 193.85657645 133.67213713 194.63386824 133.6711874 195.43471432 C133.64913355 214.32025308 133.63256984 233.20578928 133.62216854 252.09133816 C133.61700527 261.22412515 133.60996199 270.35690357 133.59854126 279.48968506 C133.58859536 287.44686341 133.58212751 295.40403555 133.57989222 303.36121994 C133.57858495 307.57714453 133.57549809 311.79305135 133.56825066 316.00897026 C133.56149192 319.97250651 133.55936345 323.93601756 133.56087303 327.89955902 C133.56059664 329.35850473 133.55859064 330.81745124 133.55477524 332.27639198 C133.54984036 334.25975062 133.55158261 336.24312259 133.5537262 338.22648621 C133.5528044 339.33909034 133.55188261 340.45169447 133.55093288 341.59801388 C133.39287508 344.02191773 133.39287508 344.02191773 134.67398071 345.07928467 C136.50530959 345.13007653 138.3385529 345.11476242 140.17007446 345.07147217 C141.28575806 345.05471436 142.40144165 345.03795654 143.55093384 345.02069092 C145.92088563 344.97648995 148.29070414 344.92443091 150.66030884 344.86444092 C151.77728149 344.85026123 152.89425415 344.83608154 154.04507446 344.82147217 C155.07559937 344.79939697 156.10612427 344.77732178 157.1678772 344.75457764 C157.99489136 344.86173096 158.82190552 344.96888428 159.67398071 345.07928467 C162.0582104 348.6556292 162.12252732 350.82347206 162.42398071 355.07928467 C162.52194946 356.31678467 162.61991821 357.55428467 162.72085571 358.82928467 C162.67398071 362.07928467 162.67398071 362.07928467 160.67398071 365.07928467 C158.69994354 365.45122147 158.69994354 365.45122147 156.23294067 365.44677734 C154.83219551 365.45513107 154.83219551 365.45513107 153.40315247 365.46365356 C152.37555313 365.45443878 151.3479538 365.445224 150.28921509 365.43572998 C149.20948929 365.43777435 148.12976349 365.43981873 147.01731873 365.44192505 C143.43395271 365.44494299 139.85104234 365.42642526 136.26773071 365.40740967 C133.78673415 365.40435374 131.30573588 365.40247635 128.82473755 365.4017334 C122.95160289 365.39653269 117.07863746 365.37724851 111.2055583 365.35188365 C105.18784036 365.32695584 99.17019173 365.32087732 93.15242767 365.31685257 C88.02762628 365.31270299 82.90284968 365.30288938 77.77806091 365.29097748 C75.31239522 365.28526457 72.84672712 365.28050926 70.38105774 365.27671051 C66.94024429 365.26986407 63.49952873 365.25623924 60.05874634 365.24041748 C58.51734734 365.23874069 58.51734734 365.23874069 56.94480896 365.23703003 C56.01097885 365.23131989 55.07714874 365.22560974 54.11502075 365.21972656 C53.30090981 365.2167519 52.48679886 365.21377724 51.64801788 365.21071243 C49.67398071 365.07928467 49.67398071 365.07928467 47.67398071 364.07928467 C47.67398071 333.38928467 47.67398071 302.69928467 47.67398071 271.07928467 C46.35398071 270.74928467 45.03398071 270.41928467 43.67398071 270.07928467 C42.68398071 270.73928467 41.69398071 271.39928467 40.67398071 272.07928467 C38.11131287 272.3197937 38.11131287 272.3197937 35.00918579 272.30633545 C33.84820877 272.30618439 32.68723175 272.30603333 31.49107361 272.30587769 C30.23787827 272.29555511 28.98468292 272.28523254 27.69351196 272.27459717 C26.4103862 272.27176727 25.12726044 272.26893738 23.80525208 272.26602173 C20.39721869 272.25839264 16.9893563 272.23875054 13.58139038 272.21661377 C10.10251173 272.19613964 6.6236054 272.18701667 3.14468384 272.17694092 C-3.67895403 272.15550385 -10.50247844 272.12137672 -17.32601929 272.07928467 C-17.34914474 281.18887631 -17.3669354 290.29845792 -17.37783146 299.40807247 C-17.38305985 303.63759838 -17.39015668 307.86710427 -17.40145874 312.09661865 C-17.4122892 316.1749701 -17.41829646 320.25330224 -17.42089653 324.33166695 C-17.42275049 325.89106106 -17.42637056 327.45045407 -17.43174934 329.00984001 C-17.4389619 331.18657629 -17.44001014 333.36323181 -17.43954468 335.53997803 C-17.44176529 336.7812999 -17.4439859 338.02262177 -17.4462738 339.30155945 C-17.6434894 341.98710167 -17.6434894 341.98710167 -16.32601929 343.07928467 C-14.70535506 343.19688754 -13.07969995 343.24657724 -11.45492554 343.26873779 C-10.41714966 343.28545532 -9.37937378 343.30217285 -8.31015015 343.31939697 C-7.18101196 343.33297241 -6.05187378 343.34654785 -4.88851929 343.36053467 C-3.16290771 343.3881488 -3.16290771 343.3881488 -1.4024353 343.4163208 C2.28964958 343.47528899 5.98178133 343.52801743 9.67398071 343.57928467 C14.52825131 343.64668759 19.3823649 343.72035658 24.23648071 343.79803467 C25.3656189 343.81161011 26.49475708 343.82518555 27.65811157 343.83917236 C28.69588745 343.85588989 29.73366333 343.87260742 30.80288696 343.88983154 C31.72142456 343.90235962 32.63996216 343.9148877 33.58633423 343.92779541 C35.67398071 344.07928467 35.67398071 344.07928467 36.67398071 345.07928467 C36.77405079 347.90184958 36.81273669 350.69451657 36.79898071 353.51678467 C36.8028479 354.30633545 36.80671509 355.09588623 36.81069946 355.90936279 C36.80061138 361.82602333 36.80061138 361.82602333 35.67398071 364.07928467 C34.8693338 364.07706406 34.06468689 364.07484344 33.23565674 364.07255554 C25.61580944 364.05243596 17.9959752 364.03725139 10.37610817 364.0274725 C6.45959964 364.02227592 2.54311323 364.01523754 -1.37338257 364.00384521 C-5.16000203 363.99290085 -8.94660033 363.9869836 -12.73323441 363.98440742 C-14.17075559 363.98257384 -15.60827575 363.97899375 -17.04578781 363.97355461 C-19.07460698 363.96619035 -21.10334105 363.96530009 -23.13217163 363.96575928 C-24.28244843 363.96353867 -25.43272522 363.96131805 -26.61785889 363.95903015 C-29.50590736 364.05268869 -32.27640442 364.26552602 -35.14242554 364.57928467 C-40.26214857 365.12140065 -45.31264816 365.213819 -50.45736694 365.19281006 C-51.89333221 365.1930291 -51.89333221 365.1930291 -53.35830688 365.19325256 C-56.48558919 365.19256243 -59.61281004 365.18481263 -62.74008179 365.17694092 C-64.9229733 365.17507354 -67.10586524 365.17365115 -69.28875732 365.1726532 C-75.00643084 365.16885322 -80.72407855 365.15904468 -86.44174194 365.14794922 C-92.28727876 365.13768069 -98.13281978 365.13314396 -103.97836304 365.12811279 C-115.42759306 365.11741995 -126.87680402 365.10037409 -138.32601929 365.07928467 C-140.41736866 361.64717143 -140.55761634 359.01192559 -140.51364136 355.02897644 C-140.50604546 353.80813638 -140.49844955 352.58729631 -140.49062347 351.3294611 C-140.48194465 350.67849181 -140.47326582 350.02752253 -140.464324 349.3568269 C-140.42733351 346.56827737 -140.41271825 343.77972331 -140.39624262 340.99098939 C-140.38728612 339.53239214 -140.37713209 338.0738018 -140.3658309 336.61522084 C-140.30982316 329.2236326 -140.35647709 321.83438019 -140.41781616 314.44281006 C-140.43287323 312.45023184 -140.4479302 310.45765362 -140.46297503 308.46507531 C-140.48388452 305.73718822 -140.50594348 303.00931083 -140.52794838 300.28143239 C-140.55685581 296.6647758 -140.58435543 293.04810845 -140.61203003 289.43144226 C-140.66420118 282.63968447 -140.71756479 275.84793663 -140.77140188 269.05619186 C-140.83282346 261.29988428 -140.89284707 253.54356605 -140.95277691 245.78724682 C-141.07568025 229.8845807 -141.2004466 213.98192997 -141.32601929 198.07928467 C-157.49601929 198.07928467 -173.66601929 198.07928467 -190.32601929 198.07928467 C-190.10945679 204.90293701 -190.10945679 204.90293701 -189.88851929 211.86444092 C-188.79045801 248.04564568 -188.12246703 284.20282166 -188.13754272 320.40195847 C-188.13852202 323.33746265 -188.13754395 326.27296157 -188.13632202 329.20846558 C-188.13538036 333.83104503 -188.14089324 338.45357031 -188.15225792 343.07613564 C-188.15609518 344.78607232 -188.15850556 346.49601286 -188.15943336 348.2059536 C-188.16154838 350.53780248 -188.17012134 352.86953154 -188.18075562 355.20135498 C-188.18456741 356.51243225 -188.18837921 357.82350952 -188.19230652 359.17431641 C-188.32601929 362.07928467 -188.32601929 362.07928467 -189.32601929 363.07928467 C-192.3162009 363.20596231 -195.27296037 363.26449305 -198.26351929 363.26678467 C-199.10076538 363.27903076 -199.93801147 363.29127686 -200.80062866 363.30389404 C-201.60178101 363.30582764 -202.40293335 363.30776123 -203.22836304 363.30975342 C-203.96562622 363.3138623 -204.7028894 363.31797119 -205.4624939 363.32220459 C-207.32601929 363.07928467 -207.32601929 363.07928467 -209.32601929 361.07928467 C-209.54434728 358.28169558 -209.63747374 355.58036531 -209.64486694 352.77996826 C-209.65490973 351.91570567 -209.66495253 351.05144308 -209.67529964 350.16099072 C-209.70643212 347.26657465 -209.72329752 344.37225439 -209.74008179 341.47772217 C-209.75889437 339.43319464 -209.77851765 337.38867443 -209.79890442 335.34416199 C-209.85099436 329.85058496 -209.89040998 324.35698377 -209.92711258 318.86328506 C-209.95885082 314.33754021 -209.99786189 309.81187036 -210.03688145 305.28618336 C-210.34342481 269.55074245 -210.46238169 233.81582099 -210.32601929 198.07928467 C-210.95020248 198.08150528 -211.57438568 198.08372589 -212.21748352 198.08601379 C-218.68944733 198.10806547 -225.16140054 198.12319077 -231.63339233 198.13421631 C-234.05169101 198.13925816 -236.46998662 198.14609145 -238.88827515 198.15472412 C-242.35581212 198.16679623 -245.82330895 198.1725143 -249.29086304 198.17694092 C-250.37939072 198.1821022 -251.4679184 198.18726349 -252.58943176 198.19258118 C-254.09087486 198.19269447 -254.09087486 198.19269447 -255.62265015 198.19281006 C-256.95168617 198.19614098 -256.95168617 198.19614098 -258.30757141 198.19953918 C-260.32601929 198.07928467 -260.32601929 198.07928467 -261.32601929 197.07928467 C-261.56576041 194.48795476 -261.74041083 191.92182053 -261.8687439 189.32415771 C-261.9105651 188.51881183 -261.9523863 187.71346594 -261.99547482 186.88371563 C-262.45864883 177.31327823 -262.55649403 167.74116186 -262.64242554 158.16131592 C-262.66319183 156.15899376 -262.68423604 154.15667446 -262.70553589 152.15435791 C-262.76084161 146.83093945 -262.8104589 141.5074832 -262.85844803 136.18399429 C-262.88862782 132.87990285 -262.92042415 129.57583064 -262.95269775 126.27175903 C-263.33239729 87.20696003 -263.45556572 48.14561146 -263.32601929 9.07928467 C-260.0445741 7.43856207 -256.42811933 7.93654033 -252.82601929 7.95428467 C-252.04098022 7.95041748 -251.25594116 7.94655029 -250.44711304 7.94256592 C-244.57932716 7.95263073 -244.57932716 7.95263073 -242.32601929 9.07928467 C-242.19378471 25.50326186 -242.06333949 41.92725222 -241.93486786 58.35125923 C-241.87513999 65.98196186 -241.81488594 73.61265957 -241.75326538 81.24334717 C-241.69938473 87.91575764 -241.64662116 94.58817599 -241.59505224 101.26060474 C-241.56332444 105.3605132 -241.53073039 109.46041231 -241.49654484 113.56030107 C-241.32319388 135.0681758 -241.32601929 156.56926791 -241.32601929 178.07928467 C-214.26601929 177.74928467 -187.20601929 177.41928467 -159.32601929 177.07928467 C-159.31391846 155.63557042 -159.31391846 155.63557042 -159.44955444 134.1942749 C-159.46278866 132.8142459 -159.47588039 131.43421552 -159.48884583 130.05418396 C-159.51617199 127.15554231 -159.54406918 124.25690699 -159.57234573 121.35827446 C-159.61666808 116.77271276 -159.657128 112.18712147 -159.69671631 107.60151672 C-159.70685806 106.42815243 -159.70685806 106.42815243 -159.71720469 105.23108381 C-159.73788949 102.83347922 -159.75852238 100.43587418 -159.77914429 98.03826904 C-159.86368386 88.21260636 -159.95104386 78.38699506 -160.0496521 68.5614624 C-160.12230912 61.31902156 -160.18792062 54.07655597 -160.24516332 46.83397633 C-160.27557783 43.02021322 -160.30960339 39.20655911 -160.35228348 35.39291191 C-160.39208186 31.83123516 -160.42260615 28.26960306 -160.44583321 24.70778084 C-160.46090936 22.77604934 -160.48602977 20.84440451 -160.51139832 18.91278076 C-160.51706314 17.77106918 -160.52272797 16.6293576 -160.52856445 15.45304871 C-160.53778238 14.45755225 -160.54700031 13.4620558 -160.55649757 12.43639278 C-160.32601929 10.07928467 -160.32601929 10.07928467 -158.32601929 8.07928467 C-155.83139279 7.69077726 -153.46031917 7.4307446 -150.95101929 7.26678467 C-150.27812866 7.20297607 -149.60523804 7.13916748 -148.91195679 7.07342529 C-145.99791115 6.86978628 -143.79361327 6.85463989 -141.13573074 8.13155842 C-138.50539605 10.96249145 -138.74885916 13.71333028 -138.76907349 17.38743591 C-138.75169628 18.51221595 -138.75169628 18.51221595 -138.73396802 19.65971881 C-138.69987943 22.17954833 -138.69420829 24.69864728 -138.68832397 27.21868896 C-138.66973346 29.02208258 -138.64939731 30.82545892 -138.62744141 32.6288147 C-138.57272122 37.53133652 -138.5425077 42.43374307 -138.51658535 47.33649039 C-138.48537628 52.45758058 -138.43177902 57.57843436 -138.38052368 62.69935608 C-138.28685265 72.3996009 -138.21341103 82.09988996 -138.14717793 91.80035669 C-138.07080223 102.8426835 -137.97196468 113.88477317 -137.87120962 124.92690027 C-137.664428 147.64420865 -137.4889198 170.36161632 -137.32601929 193.07928467 C-112.90601929 193.07928467 -88.48601929 193.07928467 -63.32601929 193.07928467 C-63.25603179 167.04393608 -63.22451011 141.04348556 -63.82601929 115.01678467 C-64.31937916 93.6190379 -64.41228318 72.23149993 -64.38851929 50.82928467 C-64.38766327 50.05712994 -64.38680725 49.2849752 -64.38592529 48.48942184 C-64.37460882 39.01935126 -64.35457469 29.54931949 -64.32601929 20.07928467 C-65.29987831 20.08261559 -65.29987831 20.08261559 -66.29341125 20.08601379 C-73.02489677 20.10806469 -79.7563721 20.12319044 -86.48788452 20.13421631 C-89.00318824 20.1392583 -91.518489 20.14609169 -94.03378296 20.15472412 C-97.64031703 20.16679561 -101.24681251 20.17251416 -104.85336304 20.17694092 C-106.55177589 20.18468285 -106.55177589 20.18468285 -108.28450012 20.19258118 C-109.84600548 20.19269447 -109.84600548 20.19269447 -111.4390564 20.19281006 C-112.3606102 20.19503067 -113.282164 20.19725128 -114.23164368 20.19953918 C-116.32601929 20.07928467 -116.32601929 20.07928467 -117.32601929 19.07928467 C-117.4526015 16.4210581 -117.51122143 13.80041043 -117.51351929 11.14178467 C-117.52576538 10.3999292 -117.53801147 9.65807373 -117.55062866 8.89373779 C-117.55590406 6.95414837 -117.44790831 5.01504757 -117.32601929 3.07928467 C-114.89535546 0.64862084 -114.28910818 0.82383937 -110.95899963 0.80081177 C-110.04106628 0.78964828 -109.12313293 0.7784848 -108.17738342 0.76698303 C-107.16706558 0.76482285 -106.15674774 0.76266266 -105.11581421 0.76043701 C-104.05375763 0.75039139 -102.99170105 0.74034576 -101.89746094 0.72999573 C-98.36714227 0.69897795 -94.83690055 0.68206446 -91.30648804 0.66522217 C-88.85183563 0.64650862 -86.39718964 0.62693506 -83.94255066 0.60653687 C-77.45875895 0.55504346 -70.97494598 0.51553938 -64.49105835 0.47839355 C-57.936641 0.43866555 -51.38231639 0.38729373 -44.82797241 0.33709717 C-33.1412279 0.24981432 -21.45448592 0.1628074 -9.76751709 0.11218262 C-6.51083982 0.09704202 -3.25604299 0.06539072 0 0 Z M66.67398071 212.07928467 C66.4095765 269.48914411 66.4095765 269.48914411 67.11148071 326.89178467 C67.13112885 327.80535736 67.15077698 328.71893005 67.17102051 329.66018677 C67.22647639 332.1399627 67.28964309 334.6193538 67.35757446 337.09881592 C67.37429199 337.79661163 67.39100952 338.49440735 67.40823364 339.21334839 C67.49753679 342.76762034 67.49753679 342.76762034 68.67398071 346.07928467 C82.86398071 346.07928467 97.05398071 346.07928467 111.67398071 346.07928467 C113.51321839 342.40080932 113.92160136 341.51175411 113.80923462 337.73358154 C113.78906281 336.87316254 113.76889099 336.01274353 113.74810791 335.12625122 C113.71591156 334.19293976 113.68371521 333.2596283 113.65054321 332.29803467 C113.62551727 331.31356354 113.60049133 330.32909241 113.57470703 329.31478882 C113.51997589 327.18476066 113.46077172 325.05484377 113.39761353 322.92504883 C113.22986649 317.23483286 113.09639 311.54383299 112.96304321 305.85272217 C112.93534851 304.69360321 112.90765381 303.53448425 112.87911987 302.34024048 C112.62871891 291.29334913 112.62398654 280.25324653 112.67398071 269.20428467 C112.75019262 250.14614187 112.34475513 231.12499651 111.67398071 212.07928467 C108.31572536 210.40015699 104.52660142 210.9377324 100.83413696 210.94647217 C99.95624008 210.94551544 99.0783432 210.94455872 98.17384338 210.943573 C96.31524585 210.94289184 94.45664595 210.94474165 92.59805298 210.94891357 C89.75156302 210.95425636 86.90523132 210.94896971 84.05874634 210.94256592 C82.25470953 210.94322684 80.45067282 210.94450828 78.64663696 210.94647217 C77.79344376 210.94444794 76.94025055 210.94242371 76.061203 210.94033813 C72.68512174 210.9537386 69.898923 211.0043039 66.67398071 212.07928467 Z M-120.32601929 214.07928467 C-120.50126983 216.87613264 -120.55745118 219.57256547 -120.52133179 222.36834717 C-120.51850189 223.18677094 -120.515672 224.0051947 -120.51275635 224.84841919 C-120.50154461 227.4671886 -120.47643858 230.08561831 -120.45101929 232.70428467 C-120.44099076 234.47771724 -120.43186469 236.25115515 -120.42367554 238.02459717 C-120.40160207 242.37629093 -120.36706573 246.72773017 -120.32601929 251.07928467 C-117.03979011 252.72239926 -113.41875278 252.07677204 -109.81820679 251.95819092 C-108.97758698 251.93457993 -108.13696716 251.91096893 -107.27087402 251.88664246 C-104.58075309 251.80994829 -101.89091588 251.72594884 -99.20101929 251.64178467 C-97.37941868 251.58856973 -95.55780414 251.5358293 -93.73617554 251.48358154 C-89.26594311 251.35432538 -84.79595169 251.21851621 -80.32601929 251.07928467 C-80.30099974 247.13235458 -80.28301065 243.18545624 -80.27108765 239.23846436 C-80.26368152 237.24788792 -80.25096454 235.2573335 -80.23812866 233.26678467 C-80.22012326 226.13664548 -80.40079888 219.1535178 -81.32601929 212.07928467 C-86.5587526 212.02992642 -91.79135105 211.99358518 -97.02426147 211.96942139 C-98.80520996 211.95935035 -100.58614186 211.94569282 -102.36703491 211.92840576 C-104.92371712 211.90420554 -107.48018114 211.89281283 -110.03695679 211.88397217 C-110.83596405 211.8736496 -111.63497131 211.86332703 -112.45819092 211.85269165 C-116.86085385 211.66990498 -116.86085385 211.66990498 -120.32601929 214.07928467 Z M-18.32601929 213.07928467 C-18.41463921 215.89091847 -18.44124284 218.67786722 -18.42367554 221.48944092 C-18.42226059 222.33147568 -18.42084564 223.17351044 -18.41938782 224.0410614 C-18.41377192 226.74133802 -18.40121677 229.44153294 -18.38851929 232.14178467 C-18.38350633 233.96795535 -18.37894307 235.79412732 -18.37484741 237.62030029 C-18.36379733 242.10666009 -18.34652208 246.59295851 -18.32601929 251.07928467 C-13.88667908 252.18200188 -9.5426744 252.22422575 -4.99789429 252.21209717 C-3.81347748 252.21353226 -3.81347748 252.21353226 -2.60513306 252.21499634 C-0.94438598 252.2156744 0.71636379 252.2138463 2.37710571 252.20965576 C4.9292487 252.20427356 7.48121797 252.20962798 10.03335571 252.21600342 C11.64793944 252.21534313 13.26252305 252.21406299 14.87710571 252.21209717 C16.02701996 252.21513351 16.02701996 252.21513351 17.20016479 252.2182312 C20.730525 252.52831981 20.730525 252.52831981 23.67398071 251.07928467 C23.76263279 248.19494647 23.78919367 245.33466309 23.77163696 242.45037842 C23.77022202 241.58614761 23.76880707 240.72191681 23.76734924 239.83149719 C23.7617331 237.05989175 23.7491779 234.28836587 23.73648071 231.51678467 C23.73146779 229.64243687 23.72690452 227.76808782 23.72280884 225.89373779 C23.71175843 221.28888923 23.69448301 216.68410046 23.67398071 212.07928467 C17.85326449 212.05463829 12.03257837 212.03645037 6.21182251 212.02435303 C4.2300463 212.01931199 2.24827382 212.01247929 0.26651001 212.00384521 C-2.57554037 211.99176952 -5.41754176 211.98605422 -8.25961304 211.98162842 C-9.1512767 211.97646713 -10.04294037 211.97130585 -10.96162415 211.96598816 C-14.96156119 211.55868451 -14.96156119 211.55868451 -18.32601929 213.07928467 Z M43.67398071 223.07928467 C44.67398071 227.07928467 44.67398071 227.07928467 44.67398071 227.07928467 Z M43.67398071 228.07928467 C43.67398071 234.01928467 43.67398071 239.95928467 43.67398071 246.07928467 C44.00398071 246.07928467 44.33398071 246.07928467 44.67398071 246.07928467 C44.67398071 240.13928467 44.67398071 234.19928467 44.67398071 228.07928467 C44.34398071 228.07928467 44.01398071 228.07928467 43.67398071 228.07928467 Z M43.67398071 250.07928467 C43.67398071 256.01928467 43.67398071 261.95928467 43.67398071 268.07928467 C44.33398071 267.74928467 44.99398071 267.41928467 45.67398071 267.07928467 C45.34398071 261.46928467 45.01398071 255.85928467 44.67398071 250.07928467 C44.34398071 250.07928467 44.01398071 250.07928467 43.67398071 250.07928467 Z M-120.32601929 272.07928467 C-120.74179302 275.17988522 -120.74179302 275.17988522 -120.60653687 278.88397217 C-120.60043396 279.58330872 -120.59433105 280.28264526 -120.58804321 281.00317383 C-120.56381737 283.32066877 -120.51765144 285.63715016 -120.47055054 287.95428467 C-120.44759602 289.56087825 -120.42569291 291.16748717 -120.40480042 292.77410889 C-120.35770156 296.14364268 -120.30018098 299.51278846 -120.23495483 302.88201904 C-120.15173782 307.20645536 -120.0906449 311.53085185 -120.03687 315.85574341 C-119.99380373 319.17406762 -119.94088658 322.49217573 -119.88477135 325.81030273 C-119.85864348 327.40510999 -119.83517274 328.99996301 -119.81437111 330.59484863 C-119.78348076 332.82173721 -119.7398009 335.04800536 -119.69247437 337.27459717 C-119.67010208 338.5431958 -119.6477298 339.81179443 -119.62467957 341.11883545 C-119.62936577 344.19764528 -119.62936577 344.19764528 -117.32601929 346.07928467 C-114.90051689 346.41074054 -114.90051689 346.41074054 -112.05014038 346.39813232 C-110.94915009 346.41800201 -109.84815979 346.4378717 -108.71380615 346.45834351 C-107.52107086 346.46989471 -106.32833557 346.48144592 -105.09945679 346.49334717 C-103.88150421 346.51271332 -102.66355164 346.53207947 -101.40869141 346.55203247 C-97.50620599 346.61196681 -93.60369129 346.65826938 -89.70101929 346.70428467 C-87.06038119 346.74245166 -84.41975571 346.78150262 -81.77914429 346.82147217 C-75.29488103 346.91767971 -68.81054221 347.00268643 -62.32601929 347.07928467 C-56.11217937 334.65160484 -60.33841581 310.17563634 -60.70101929 296.26678467 C-60.73301422 294.98657944 -60.73301422 294.98657944 -60.76565552 293.68051147 C-60.82935726 291.22338081 -60.90018497 288.76658543 -60.97445679 286.30975342 C-60.99435669 285.58158417 -61.01425659 284.85341492 -61.03475952 284.10317993 C-60.77693378 276.58562046 -60.77693378 276.58562046 -63.32601929 270.07928467 C-64.99780608 269.97531854 -66.67396561 269.94075574 -68.34896851 269.934021 C-69.42033051 269.92764114 -70.4916925 269.92126129 -71.59552002 269.91468811 C-72.76213165 269.91357529 -73.92874329 269.91246246 -75.13070679 269.91131592 C-76.32076324 269.90798752 -77.5108197 269.90465912 -78.73693848 269.90122986 C-81.260606 269.89615511 -83.78428026 269.8938217 -86.30795288 269.89398193 C-90.1773685 269.89179802 -94.04649803 269.87365485 -97.91586304 269.85467529 C-100.36247664 269.85174103 -102.8090916 269.84975645 -105.25570679 269.84881592 C-106.41826996 269.8416304 -107.58083313 269.83444489 -108.77862549 269.82704163 C-110.39512497 269.83165657 -110.39512497 269.83165657 -112.04428101 269.83636475 C-112.99390717 269.83493973 -113.94353333 269.83351471 -114.92193604 269.83204651 C-117.588647 269.91733033 -117.588647 269.91733033 -120.32601929 272.07928467 Z M-41.32601929 306.07928467 C-41.32601929 308.71928467 -41.32601929 311.35928467 -41.32601929 314.07928467 C-40.99601929 314.07928467 -40.66601929 314.07928467 -40.32601929 314.07928467 C-40.32601929 311.43928467 -40.32601929 308.79928467 -40.32601929 306.07928467 C-40.65601929 306.07928467 -40.98601929 306.07928467 -41.32601929 306.07928467 Z M-41.32601929 317.07928467 C-41.32601929 319.71928467 -41.32601929 322.35928467 -41.32601929 325.07928467 C-40.99601929 325.07928467 -40.66601929 325.07928467 -40.32601929 325.07928467 C-40.32601929 322.43928467 -40.32601929 319.79928467 -40.32601929 317.07928467 C-40.65601929 317.07928467 -40.98601929 317.07928467 -41.32601929 317.07928467 Z " fill="#F9F8F6" transform="translate(363.3260192871094,45.92071533203125)"/>
<path d="M0 0 C5.28 0 10.56 0 16 0 C16.96583573 39.58385263 17.08950366 79.15588805 17.0625 118.75 C17.06164398 120.01399879 17.06078796 121.27799759 17.05990601 122.58029938 C17.04841524 138.38688678 17.02531303 154.19342216 17 170 C46.04 170 75.08 170 105 170 C104.67 156.8 104.34 143.6 104 130 C103.87688841 123.02684812 103.7603061 116.05552141 103.68359375 109.08203125 C103.66272034 107.35386968 103.64167747 105.62571016 103.6204834 103.89755249 C103.56668046 99.44147504 103.5164834 94.98536556 103.46757126 90.52923203 C103.43697391 87.76497165 103.40528419 85.00072561 103.37332153 82.23648071 C103.05768865 54.82352777 102.85941047 27.41495895 103 0 C108.61 0 114.22 0 120 0 C120.13326092 15.68740267 120.26379666 31.37482524 120.39115143 47.06227684 C120.45040787 54.35386642 120.51047837 61.64544725 120.57275391 68.93701172 C120.90548029 107.96006898 121.04922747 146.97492393 121 186 C103.84 186 86.68 186 69 186 C69.10828125 192.42919922 69.10828125 192.42919922 69.21875 198.98828125 C69.31654629 205.09629489 69.40948998 211.20437424 69.5 217.3125 C69.51187725 218.11351891 69.5237545 218.91453781 69.53599167 219.73983002 C69.97792575 249.86857889 70.08785008 279.99326632 70.0625 310.125 C70.06164398 311.14981602 70.06078796 312.17463203 70.05990601 313.23050308 C70.04860072 325.82035602 70.02782897 338.41017334 70 351 C64.72 351 59.44 351 54 351 C53.86777107 335.09755844 53.73725844 319.19510395 53.60884857 303.29263115 C53.54914676 295.90406471 53.48889485 288.5155036 53.42724609 281.12695312 C53.16295184 249.41736856 52.93341502 217.71109532 53 186 C36.17 186 19.34 186 2 186 C0.87498225 173.62480476 0.87498225 173.62480476 0.84178162 169.26817322 C0.8319928 168.27354065 0.82220398 167.27890808 0.81211853 166.25413513 C0.80348534 164.67802208 0.80348534 164.67802208 0.79467773 163.07006836 C0.78477814 161.92958038 0.77487854 160.78909241 0.76467896 159.61404419 C0.73321615 155.85599789 0.70829959 152.09794007 0.68359375 148.33984375 C0.66294562 145.67281261 0.64197337 143.00578578 0.62062073 140.33876038 C0.57642927 134.72952203 0.53571093 129.12026719 0.49731445 123.51098633 C0.45865099 117.86512716 0.41720031 112.21929952 0.37231445 106.57348633 C0.08994262 71.04872392 -0.0692962 35.52610772 0 0 Z " fill="#5B5B5B" transform="translate(102,56)"/>
<path d="M0 0 C26.73 0 53.46 0 81 0 C81 50.49 81 100.98 81 153 C90.24 153 99.48 153 109 153 C109 158.28 109 163.56 109 169 C73.36 169 37.72 169 1 169 C0.29705854 164.07940977 -0.12404819 159.89812117 -0.12025452 155.0080719 C-0.12110894 154.34055544 -0.12196337 153.67303899 -0.12284368 152.98529476 C-0.12447924 150.7682446 -0.11900891 148.5512716 -0.11352539 146.33422852 C-0.11324308 144.7371572 -0.11340212 143.14008576 -0.1139679 141.54301453 C-0.11425414 137.22124138 -0.10838526 132.89949614 -0.10139394 128.57772946 C-0.09513171 124.05604778 -0.09455433 119.53436541 -0.09336853 115.01268005 C-0.09026367 106.45640932 -0.08206168 97.90015141 -0.07201904 89.34388632 C-0.05873873 77.77743166 -0.05335117 66.21097349 -0.04751682 54.64451313 C-0.03812122 36.42966583 -0.01819665 18.21484556 0 0 Z M17 18 C16.73559579 75.40985944 16.73559579 75.40985944 17.4375 132.8125 C17.45714813 133.72607269 17.47679626 134.63964539 17.49703979 135.5809021 C17.55249567 138.06067803 17.61566238 140.54006913 17.68359375 143.01953125 C17.70031128 143.71732697 17.71702881 144.41512268 17.73425293 145.13406372 C17.82355607 148.68833567 17.82355607 148.68833567 19 152 C33.19 152 47.38 152 62 152 C63.83923767 148.32152465 64.24762065 147.43246945 64.13525391 143.65429688 C64.11508209 142.79387787 64.09491028 141.93345886 64.0741272 141.04696655 C64.04193085 140.11365509 64.0097345 139.18034363 63.9765625 138.21875 C63.95153656 137.23427887 63.92651062 136.24980774 63.90072632 135.23550415 C63.84599517 133.10547599 63.78679101 130.97555911 63.72363281 128.84576416 C63.55588578 123.1555482 63.42240928 117.46454832 63.2890625 111.7734375 C63.2613678 110.61431854 63.2336731 109.45519958 63.20513916 108.26095581 C62.95473819 97.21406446 62.95000582 86.17396187 63 75.125 C63.0762119 56.0668572 62.67077441 37.04571184 62 18 C58.64174465 16.32087232 54.85262071 16.85844773 51.16015625 16.8671875 C50.28225937 16.86623077 49.40436249 16.86527405 48.49986267 16.86428833 C46.64126514 16.86360717 44.78266524 16.86545698 42.92407227 16.86962891 C40.07758231 16.87497169 37.23125061 16.86968504 34.38476562 16.86328125 C32.58072882 16.86394217 30.77669211 16.86522361 28.97265625 16.8671875 C28.11946304 16.86516327 27.26626984 16.86313904 26.38722229 16.86105347 C23.01114103 16.87445393 20.22494229 16.92501924 17 18 Z " fill="#D3B374" transform="translate(413,240)"/>
<path d="M0 0 C1.1604483 -0.01814758 2.32089661 -0.03629517 3.51651001 -0.05499268 C4.91186226 -0.08778824 4.91186226 -0.08778824 6.33540344 -0.12124634 C8.67398071 0.07928467 8.67398071 0.07928467 12.67398071 2.07928467 C12.67398071 7.68928467 12.67398071 13.29928467 12.67398071 19.07928467 C-6.79601929 19.07928467 -26.26601929 19.07928467 -46.32601929 19.07928467 C-46.19324585 27.79334717 -46.06047241 36.50740967 -45.92367554 45.48553467 C-45.83719201 51.24920008 -45.7508746 57.01286676 -45.6656189 62.77655029 C-45.65467819 63.51609609 -45.64373749 64.25564188 -45.63246524 65.01759815 C-45.56260669 69.74331781 -45.49299996 74.46904113 -45.42356253 79.194767 C-45.40025717 80.7805802 -45.37693072 82.36639308 -45.35358286 83.95220566 C-44.81442598 120.57706752 -44.3032875 157.20155504 -44.00570679 193.82928467 C-44.00013756 194.51201887 -43.99456832 195.19475307 -43.98883033 195.89817619 C-43.87818356 209.50714172 -43.77820584 223.11616885 -43.69131279 236.72530746 C-43.6537564 242.56206565 -43.61383407 248.39880482 -43.57211304 254.23553467 C-43.56428551 255.33724754 -43.55645798 256.43896042 -43.54839325 257.57405853 C-43.43517882 272.76695431 -43.14341851 287.94412083 -42.66610718 303.12963867 C-42.26975847 315.86552664 -42.20904441 328.58833125 -42.26351929 341.32928467 C-42.26856945 343.47772107 -42.27312585 345.62615868 -42.27719116 347.77459717 C-42.28786154 352.8761917 -42.30490893 357.97772312 -42.32601929 363.07928467 C-47.93601929 363.07928467 -53.54601929 363.07928467 -59.32601929 363.07928467 C-59.34885483 360.75353897 -59.37169037 358.42779327 -59.3952179 356.03157043 C-59.6145522 333.70296439 -59.83504865 311.37437001 -60.05650997 289.04578495 C-60.170236 277.57689486 -60.28361905 266.10800161 -60.39608765 254.63909912 C-60.52655298 241.33920179 -60.65825928 228.0393171 -60.79086304 214.73944092 C-60.8017624 213.64381749 -60.81266176 212.54819407 -60.8238914 211.41936994 C-61.06181433 187.52044641 -61.30983012 163.62176245 -61.6133728 139.72357178 C-61.62505489 138.80030409 -61.63673698 137.8770364 -61.64877307 136.92579091 C-61.7579578 128.30907834 -61.86888942 119.69239654 -61.98717546 111.07580376 C-62.40623085 80.41007988 -62.43777187 49.74738676 -62.32601929 19.07928467 C-63.97162842 19.32267578 -63.97162842 19.32267578 -65.65048218 19.57098389 C-70.81501704 20.21321391 -75.93642031 20.22303781 -81.13461304 20.21209717 C-82.14193985 20.21305389 -83.14926666 20.21401062 -84.18711853 20.21499634 C-86.30072086 20.2156732 -88.41432532 20.21385357 -90.52792358 20.20965576 C-93.77772604 20.20426108 -97.02739274 20.20963751 -100.27719116 20.21600342 C-102.33383209 20.21534332 -104.39047294 20.21406357 -106.44711304 20.21209717 C-107.42304916 20.2141214 -108.39898529 20.21614563 -109.40449524 20.2182312 C-110.29955276 20.21507904 -111.19461029 20.21192688 -112.11679077 20.2086792 C-113.30304298 20.20748581 -113.30304298 20.20748581 -114.51325989 20.20626831 C-116.32601929 20.07928467 -116.32601929 20.07928467 -117.32601929 19.07928467 C-117.4526015 16.4210581 -117.51122143 13.80041043 -117.51351929 11.14178467 C-117.52576538 10.3999292 -117.53801147 9.65807373 -117.55062866 8.89373779 C-117.55590406 6.95414837 -117.44790831 5.01504757 -117.32601929 3.07928467 C-114.89535546 0.64862084 -114.28910818 0.82383937 -110.95899963 0.80081177 C-110.04106628 0.78964828 -109.12313293 0.7784848 -108.17738342 0.76698303 C-107.16706558 0.76482285 -106.15674774 0.76266266 -105.11581421 0.76043701 C-104.05375763 0.75039139 -102.99170105 0.74034576 -101.89746094 0.72999573 C-98.36714227 0.69897795 -94.83690055 0.68206446 -91.30648804 0.66522217 C-88.85183563 0.64650862 -86.39718964 0.62693506 -83.94255066 0.60653687 C-77.45875895 0.55504346 -70.97494598 0.51553938 -64.49105835 0.47839355 C-57.936641 0.43866555 -51.38231639 0.38729373 -44.82797241 0.33709717 C-33.1412279 0.24981432 -21.45448592 0.1628074 -9.76751709 0.11218262 C-6.51083982 0.09704202 -3.25604299 0.06539072 0 0 Z " fill="#D3B475" transform="translate(363.3260192871094,45.92071533203125)"/>
<path d="M0 0 C26.07 0 52.14 0 79 0 C79 25.08 79 50.16 79 76 C69.77981771 76 60.58761702 75.99951214 51.375 75.78125 C50.48683594 75.7615918 49.59867187 75.74193359 48.68359375 75.72167969 C45.45568533 75.649727 42.22784598 75.57470158 39 75.5 C31.74 75.335 24.48 75.17 17 75 C17 100.41 17 125.82 17 152 C35.15 152 53.3 152 72 152 C72 157.28 72 162.56 72 168 C48.57 168 25.14 168 1 168 C0.82582605 156.12506863 0.65657445 144.25016443 0.5 132.375 C0.48218412 131.0245245 0.48218412 131.0245245 0.46400833 129.64676666 C-0.10098102 86.42800453 -0.0713261 43.22361874 0 0 Z M19 19 C18.91138008 21.8116338 18.88477645 24.59858255 18.90234375 27.41015625 C18.9037587 28.25219101 18.90517365 29.09422577 18.90663147 29.96177673 C18.91224737 32.66205335 18.92480252 35.36224828 18.9375 38.0625 C18.94251295 39.88867068 18.94707621 41.71484266 18.95117188 43.54101562 C18.96222196 48.02737542 18.97949721 52.51367384 19 57 C23.43934021 58.10271722 27.78334488 58.14494109 32.328125 58.1328125 C33.51254181 58.13424759 33.51254181 58.13424759 34.72088623 58.13571167 C36.3816333 58.13638973 38.04238308 58.13456163 39.703125 58.13037109 C42.25526798 58.12498889 44.80723726 58.13034331 47.359375 58.13671875 C48.97395872 58.13605846 50.58854234 58.13477832 52.203125 58.1328125 C53.35303925 58.13584885 53.35303925 58.13584885 54.52618408 58.13894653 C58.05654429 58.44903515 58.05654429 58.44903515 61 57 C61.08865208 54.1156618 61.11521296 51.25537842 61.09765625 48.37109375 C61.0962413 47.50686295 61.09482635 46.64263214 61.09336853 45.75221252 C61.08775239 42.98060708 61.07519719 40.2090812 61.0625 37.4375 C61.05748708 35.5631522 61.05292381 33.68880315 61.04882812 31.81445312 C61.03777772 27.20960456 61.0205023 22.60481579 61 18 C55.17928378 17.97535362 49.35859766 17.9571657 43.5378418 17.94506836 C41.55606559 17.94002733 39.57429311 17.93319462 37.5925293 17.92456055 C34.75047891 17.91248485 31.90847753 17.90676955 29.06640625 17.90234375 C28.17474258 17.89718246 27.28307892 17.89202118 26.36439514 17.88670349 C22.36445809 17.47939985 22.36445809 17.47939985 19 19 Z " fill="#D3B475" transform="translate(326,240)"/>
<path d="M0 0 C25.41 0 50.82 0 77 0 C77 24.75 77 49.5 77 75 C57.2 75 37.4 75 17 75 C17 100.74 17 126.48 17 153 C35.48 153 53.96 153 73 153 C73 158.28 73 163.56 73 169 C49.57 169 26.14 169 2 169 C1.93941406 162.13316406 1.87882813 155.26632812 1.81640625 148.19140625 C1.77569446 143.7206999 1.73481428 139.24999625 1.69335938 134.77929688 C1.62823031 127.75383789 1.56357336 120.72837805 1.50268555 113.70288086 C1.26919929 86.84493009 0.9461371 59.99366389 0.32704163 33.14149475 C0.30546305 32.18122187 0.28388447 31.22094898 0.26165199 30.23157692 C0.22223505 28.48900648 0.18127623 26.74646955 0.13809776 25.00398827 C-0.05052369 16.66410609 0 8.35057592 0 0 Z M19 20 C18.82474945 22.79684797 18.76856811 25.4932808 18.8046875 28.2890625 C18.8075174 29.10748627 18.81034729 29.92591003 18.81326294 30.76913452 C18.82447468 33.38790393 18.84958071 36.00633364 18.875 38.625 C18.88502853 40.39843257 18.8941546 42.17187049 18.90234375 43.9453125 C18.92441722 48.29700626 18.95895356 52.6484455 19 57 C22.28622918 58.64311459 25.90726651 57.99748737 29.5078125 57.87890625 C30.34843231 57.85529526 31.18905212 57.83168427 32.05514526 57.80735779 C34.7452662 57.73066362 37.4351034 57.64666417 40.125 57.5625 C41.94660061 57.50928506 43.76821514 57.45654463 45.58984375 57.40429688 C50.06007618 57.27504071 54.5300676 57.13923154 59 57 C59.02501955 53.05306991 59.04300863 49.10617158 59.05493164 45.15917969 C59.06233777 43.16860325 59.07505474 41.17804883 59.08789062 39.1875 C59.10589603 32.05736081 58.92522041 25.07423314 58 18 C52.76726669 17.95064176 47.53466824 17.91430051 42.30175781 17.89013672 C40.52080933 17.88006569 38.73987743 17.86640815 36.95898438 17.84912109 C34.40230217 17.82492087 31.84583815 17.81352816 29.2890625 17.8046875 C28.49005524 17.79436493 27.69104797 17.78404236 26.86782837 17.77340698 C22.46516544 17.59062032 22.46516544 17.59062032 19 20 Z " fill="#5B5B5B" transform="translate(224,240)"/>
<path d="M0 0 C1 1 1 1 1.09765625 4.16015625 C1.08605469 5.44792969 1.07445312 6.73570312 1.0625 8.0625 C1.05347656 9.35285156 1.04445313 10.64320313 1.03515625 11.97265625 C1.02355469 12.97167969 1.01195312 13.97070312 1 15 C5.17953214 15.24625885 5.17953214 15.24625885 8.6875 12.875 C11.06562786 9.9184086 11.93733179 7.59672319 13 4 C15.42066831 2.78966585 16.98166942 2.87077197 19.68359375 2.8671875 C20.61107422 2.86589844 21.53855469 2.86460937 22.49414062 2.86328125 C23.46544922 2.86714844 24.43675781 2.87101563 25.4375 2.875 C26.40494141 2.87113281 27.37238281 2.86726562 28.36914062 2.86328125 C29.29791016 2.86457031 30.22667969 2.86585938 31.18359375 2.8671875 C32.46061157 2.86887939 32.46061157 2.86887939 33.76342773 2.87060547 C36 3 36 3 39 4 C39.495 8.95 39.495 8.95 40 14 C42.31 14.33 44.62 14.66 47 15 C47 10.38 47 5.76 47 1 C56.26102941 -1.31525735 56.26102941 -1.31525735 60 0 C61.68300669 1.68300669 61.22809077 3.82008727 61.31640625 6.12890625 C61.35830078 7.16337891 61.40019531 8.19785156 61.44335938 9.26367188 C61.48267578 10.35228516 61.52199219 11.44089844 61.5625 12.5625 C61.60568359 13.65498047 61.64886719 14.74746094 61.69335938 15.87304688 C61.79982068 18.58189564 61.90183516 21.29083992 62 24 C63.11375 24.12375 64.2275 24.2475 65.375 24.375 C69 25 69 25 71 27 C71.26991906 29.68839385 71.08737357 32.29141936 71 35 C68.03 35.66 65.06 36.32 62 37 C61.96241577 38.40076782 61.96241577 38.40076782 61.92407227 39.82983398 C61.82913072 43.28325189 61.72988742 46.7364896 61.62768555 50.18969727 C61.58428187 51.68639269 61.54261087 53.18313939 61.50268555 54.67993164 C61.44511384 56.82714312 61.38138284 58.97409521 61.31640625 61.12109375 C61.27974854 62.4145874 61.24309082 63.70808105 61.20532227 65.04077148 C61 68 61 68 60 69 C58.1732966 69.26013181 56.33767093 69.45923072 54.5 69.625 C53.4996875 69.72039062 52.499375 69.81578125 51.46875 69.9140625 C50.6540625 69.94242187 49.839375 69.97078125 49 70 C47.26043342 68.26043342 47.62809614 65.8063378 47.4375 63.4375 C47.35371094 62.42558594 47.26992188 61.41367188 47.18359375 60.37109375 C47.12300781 59.58863281 47.06242188 58.80617187 47 58 C44.13098073 56.95016221 44.13098073 56.95016221 41.5625 56.625 C38.70826585 55.92884533 37.14546114 54.9865381 35 53 C35 52.34 35 51.68 35 51 C34.34 51 33.68 51 33 51 C33 50.34 33 49.68 33 49 C30.69 48.34 28.38 47.68 26 47 C25.41992188 47.61488281 24.83984375 48.22976562 24.2421875 48.86328125 C15.86715925 57.52853325 15.86715925 57.52853325 11 59 C7.54160129 58.08454152 5.20821239 55.76026549 3 53 C2.75 50.25 2.75 50.25 3 48 C3.86625 47.649375 4.7325 47.29875 5.625 46.9375 C13.65511072 42.32762162 15.91228518 36.33659775 18.3359375 27.59765625 C18.55507813 26.74042969 18.77421875 25.88320312 19 25 C18.23429688 25.24556641 18.23429688 25.24556641 17.453125 25.49609375 C14.18708172 26.16698481 11.0813253 26.0933456 7.75 26.0625 C6.48671875 26.05347656 5.2234375 26.04445312 3.921875 26.03515625 C2.95765625 26.02355469 1.9934375 26.01195312 1 26 C1.00523682 26.60062256 1.01047363 27.20124512 1.01586914 27.82006836 C1.03658014 30.52586838 1.04964125 33.23165177 1.0625 35.9375 C1.07087891 36.88302734 1.07925781 37.82855469 1.08789062 38.80273438 C1.09111328 39.70185547 1.09433594 40.60097656 1.09765625 41.52734375 C1.10289307 42.35999756 1.10812988 43.19265137 1.11352539 44.05053711 C1 46 1 46 0 47 C-2.69654854 47.07319621 -5.36691458 47.09242537 -8.0625 47.0625 C-9.20041992 47.05573242 -9.20041992 47.05573242 -10.36132812 47.04882812 C-12.24091871 47.0370068 -14.12046899 47.01907078 -16 47 C-13.13150501 52.00728511 -10.24963114 55.96988817 -4.609375 57.7578125 C-2.41101334 58.24864168 -0.22749552 58.66835067 2 59 C3.26264601 63.29299643 2.62950412 65.87831311 1 70 C-4.12645106 71.57736956 -7.08370481 70.485931 -11.6953125 68.25 C-14.62023867 66.66359937 -17.41421801 64.91825829 -20.203125 63.10546875 C-22.3729157 61.77057578 -24.59362577 60.82719114 -27 60 C-27 60.66 -27 61.32 -27 62 C-33.17989984 66.4639518 -41.11857816 71.71649289 -49 71 C-53 64.5 -53 64.5 -53 60 C-52.19175781 59.74605469 -51.38351562 59.49210937 -50.55078125 59.23046875 C-49.48214844 58.88628906 -48.41351563 58.54210937 -47.3125 58.1875 C-46.25675781 57.85105469 -45.20101562 57.51460937 -44.11328125 57.16796875 C-39.68741506 55.50757478 -36.73987425 54.21550769 -34.25 50.125 C-33.15000814 47.37502036 -32.429512 44.92068161 -32 42 C-30.02 41.34 -28.04 40.68 -26 40 C-26 39.01 -26 38.02 -26 37 C-30.40670299 36.6892772 -30.40670299 36.6892772 -34.33203125 38.4921875 C-37.48009357 40.27132667 -39.41120802 40.37200803 -43 40.3125 C-44.5159375 40.30669922 -44.5159375 40.30669922 -46.0625 40.30078125 C-50.04491732 39.89300714 -52.90883713 39.2978225 -55.546875 36.16015625 C-55.94390625 35.46792969 -56.3409375 34.77570313 -56.75 34.0625 C-57.15734375 33.37285156 -57.5646875 32.68320313 -57.984375 31.97265625 C-60.81806372 26.46876085 -60.82807171 20.10526893 -59.25 14.1875 C-56.05631471 8.59855075 -53.25307398 5.94767878 -47 4 C-40.49195284 3.07027898 -37.41045241 4.23620702 -32 8 C-28.24870163 8.33524876 -28.24870163 8.33524876 -25 8 C-25.020625 7.030625 -25.04125 6.06125 -25.0625 5.0625 C-25 2 -25 2 -24 1 C-16.0636676 -1.52441074 -8.16966349 -1.12489108 0 0 Z M-48 18 C-48.95798901 20.95379945 -49.06660794 22.70692508 -48.375 25.75 C-47.17761931 28.20787656 -47.17761931 28.20787656 -44.5625 29 C-42.00092352 29.2398079 -42.00092352 29.2398079 -40.25 27.8125 C-38.82320225 25.74364326 -38.22148643 24.51017955 -38 22 C-39.01145288 18.71916905 -39.01145288 18.71916905 -41 16 C-44.961168 15.60909667 -44.961168 15.60909667 -48 18 Z M3 19 C3.66 19.66 4.32 20.32 5 21 C5 20.34 5 19.68 5 19 C4.34 19 3.68 19 3 19 Z M35 25 C33.83500775 28.49497675 33.98592813 29.96059877 35.25 33.5 C35.8275 34.655 36.405 35.81 37 37 C37.433125 37.9075 37.86625 38.815 38.3125 39.75 C40.46357838 42.6181045 42.73534253 43.62158907 46 45 C48.04975978 42.95024022 47.27592642 38.92897437 47.3125 36.125 C47.34150391 35.39152344 47.37050781 34.65804687 47.40039062 33.90234375 C47.4670196 29.56834511 47.4670196 29.56834511 45.24609375 26.00390625 C41.6742203 24.40743412 38.88018592 24.8059907 35 25 Z " fill="#F8F8F8" transform="translate(558,160)"/>
<path d="M0 0 C0.78503906 -0.00386719 1.57007812 -0.00773437 2.37890625 -0.01171875 C8.24669213 -0.00165394 8.24669213 -0.00165394 10.5 1.125 C10.53070873 16.70832438 10.55101505 32.29164947 10.5625 47.875 C10.56335602 49.02827034 10.56421204 50.18154068 10.56509399 51.36975861 C10.59127246 91.30265502 10.22267525 131.1971923 9.5 171.125 C37.88 171.125 66.26 171.125 95.5 171.125 C95.5 158.255 95.5 145.385 95.5 132.125 C95.83 132.125 96.16 132.125 96.5 132.125 C96.5 145.325 96.5 158.525 96.5 172.125 C67.46 172.125 38.42 172.125 8.5 172.125 C8.3297749 155.04169525 8.16161408 137.95838631 8 120.875 C7.98218412 118.99229527 7.98218412 118.99229527 7.96400833 117.07155609 C7.60307068 78.75471053 7.33837061 40.44359776 7.5 2.125 C2.22 2.125 -3.06 2.125 -8.5 2.125 C-8.47265274 3.26717987 -8.44530548 4.40935974 -8.41712952 5.58615112 C-7.54865974 42.48875327 -7.2192974 79.38756363 -6.98259127 116.2982986 C-6.93204457 124.15895669 -6.87758387 132.01958648 -6.82291877 139.88021684 C-6.71116427 155.96178556 -6.60444354 172.04338188 -6.5 188.125 C10.33 188.125 27.16 188.125 44.5 188.125 C45.58127707 220.56331197 45.62297893 252.97478834 45.57202661 285.42554021 C45.56061469 292.8288625 45.55529246 300.232186 45.55032361 307.63551497 C45.54001821 322.79868673 45.5223481 337.96184084 45.5 353.125 C50.78 353.125 56.06 353.125 61.5 353.125 C61.5 346.195 61.5 339.265 61.5 332.125 C61.83 332.125 62.16 332.125 62.5 332.125 C62.5 339.385 62.5 346.645 62.5 354.125 C59.550625 354.145625 56.60125 354.16625 53.5625 354.1875 C52.63187744 354.196604 51.70125488 354.20570801 50.74243164 354.21508789 C50.01403076 354.21758545 49.28562988 354.22008301 48.53515625 354.22265625 C47.41185913 354.23051147 47.41185913 354.23051147 46.26586914 354.23852539 C44.5 354.125 44.5 354.125 43.5 353.125 C43.37444804 350.38887793 43.31385178 347.67684906 43.29467773 344.93920898 C43.28478097 344.07509242 43.2748842 343.21097586 43.26468754 342.32067394 C43.23280097 339.42084245 43.20813518 336.52099605 43.18359375 333.62109375 C43.1629143 331.57514081 43.1418706 329.52919152 43.1204834 327.48324585 C43.0644854 321.9814253 43.01520709 316.47956354 42.96757126 310.97766495 C42.93763917 307.57830525 42.90580976 304.17896873 42.87332153 300.77963257 C42.52172114 263.89405468 42.35924749 227.01205201 42.5 190.125 C41.8758168 190.12722061 41.25163361 190.12944122 40.60853577 190.13172913 C34.13657196 190.1537808 27.66461875 190.1689061 21.19262695 190.17993164 C18.77432828 190.18497349 16.35603267 190.19180678 13.93774414 190.20043945 C10.47020717 190.21251157 7.00271034 190.21822963 3.53515625 190.22265625 C2.44662857 190.22781754 1.35810089 190.23297882 0.23658752 190.23829651 C-1.26485558 190.23840981 -1.26485558 190.23840981 -2.79663086 190.23852539 C-4.12566689 190.24185631 -4.12566689 190.24185631 -5.48155212 190.24525452 C-7.5 190.125 -7.5 190.125 -8.5 189.125 C-8.73974112 186.53367009 -8.91439154 183.96753586 -9.04272461 181.36987305 C-9.08454581 180.56452716 -9.12636702 179.75918127 -9.16945553 178.92943096 C-9.63262954 169.35899356 -9.73047474 159.78687719 -9.81640625 150.20703125 C-9.83717254 148.20470909 -9.85821675 146.2023898 -9.8795166 144.20007324 C-9.93482232 138.87665478 -9.98443961 133.55319853 -10.03242874 128.22970963 C-10.06260853 124.92561818 -10.09440486 121.62154597 -10.12667847 118.31747437 C-10.506378 79.25267536 -10.62954643 40.19132679 -10.5 1.125 C-7.21855481 -0.51572259 -3.60210004 -0.01774434 0 0 Z " fill="#EEEEEE" transform="translate(110.5,53.875)"/>
<path d="M0 0 C2.64 0 5.28 0 8 0 C8 12.21 8 24.42 8 37 C5.36 37 2.72 37 0 37 C0 35.02 0 33.04 0 31 C-6.87307535 31.18347408 -6.87307535 31.18347408 -12.9375 34.0625 C-17.51159941 36.95631799 -21.73586537 37.00705184 -27 36 C-31.06301103 33.88896936 -33.37033165 31.23195981 -35.4375 27.1875 C-36.52150661 21.04479588 -37.06350535 16.18646827 -33.8125 10.625 C-31.556362 7.4701775 -29.72866937 5.35587977 -26 4 C-21.33148102 3.31574583 -18.10659843 3.25424888 -14.125 5.9375 C-9.64210643 8.89620976 -5.26878358 8.8124988 0 9 C0 6.03 0 3.06 0 0 Z M-26 16 C-26.95798901 18.95379945 -27.06660794 20.70692508 -26.375 23.75 C-25.17761931 26.20787656 -25.17761931 26.20787656 -22.5625 27 C-20.00092352 27.2398079 -20.00092352 27.2398079 -18.25 25.8125 C-16.82320225 23.74364326 -16.22148643 22.51017955 -16 20 C-17.01145288 16.71916905 -17.01145288 16.71916905 -19 14 C-22.961168 13.60909667 -22.961168 13.60909667 -26 16 Z " fill="#5D5D5D" transform="translate(536,162)"/>
<path d="M0 0 C11.88 0 23.76 0 36 0 C36 2.31 36 4.62 36 7 C31.71 7 27.42 7 23 7 C25.1652699 16.11692591 27.0615979 23.78123153 35.3125 29 C36.53154113 29.68500647 37.75742513 30.35867104 39 31 C37.51153846 35.71346154 37.51153846 35.71346154 34.921875 37.1640625 C34.28765625 37.43992188 33.6534375 37.71578125 33 38 C27.2233512 33.85943909 22.81250545 30.02621829 19 24 C18.484375 24.66 17.96875 25.32 17.4375 26 C16.633125 26.99 15.82875 27.98 15 29 C14.20142578 29.99386719 14.20142578 29.99386719 13.38671875 31.0078125 C9.94256411 35.14690744 7.1423774 37.99321857 2 40 C-0.475 36.535 -0.475 36.535 -3 33 C-2.46890625 32.62488281 -1.9378125 32.24976563 -1.390625 31.86328125 C5.12140346 27.1456256 10.98315098 21.9642106 12.40625 13.6171875 C12.65459604 11.41656568 12.83270735 9.20826297 13 7 C8.71 7 4.42 7 0 7 C0 4.69 0 2.38 0 0 Z " fill="#5E5E5E" transform="translate(566,177)"/>
<path d="M0 0 C2.97 0 5.94 0 9 0 C9 8.58 9 17.16 9 26 C12.3 26 15.6 26 19 26 C19 28.31 19 30.62 19 33 C15.7 33 12.4 33 9 33 C9 44.22 9 55.44 9 67 C6.03 67 3.06 67 0 67 C0 44.89 0 22.78 0 0 Z " fill="#5E5E5E" transform="translate(608,161)"/>
<path d="M0 0 C16.17 0 32.34 0 49 0 C49 45.21 49 90.42 49 137 C32.83 137 16.66 137 0 137 C0 91.79 0 46.58 0 0 Z M1 2 C0.73559579 59.40985944 0.73559579 59.40985944 1.4375 116.8125 C1.45714813 117.72607269 1.47679626 118.63964539 1.49703979 119.5809021 C1.55249567 122.06067803 1.61566238 124.54006913 1.68359375 127.01953125 C1.70031128 127.71732697 1.71702881 128.41512268 1.73425293 129.13406372 C1.82355607 132.68833567 1.82355607 132.68833567 3 136 C17.19 136 31.38 136 46 136 C47.83923767 132.32152465 48.24762065 131.43246945 48.13525391 127.65429688 C48.11508209 126.79387787 48.09491028 125.93345886 48.0741272 125.04696655 C48.04193085 124.11365509 48.0097345 123.18034363 47.9765625 122.21875 C47.95153656 121.23427887 47.92651062 120.24980774 47.90072632 119.23550415 C47.84599517 117.10547599 47.78679101 114.97555911 47.72363281 112.84576416 C47.55588578 107.1555482 47.42240928 101.46454832 47.2890625 95.7734375 C47.2613678 94.61431854 47.2336731 93.45519958 47.20513916 92.26095581 C46.95473819 81.21406446 46.95000582 70.17396187 47 59.125 C47.0762119 40.0668572 46.67077441 21.04571184 46 2 C42.64174465 0.32087232 38.85262071 0.85844773 35.16015625 0.8671875 C34.28225937 0.86623077 33.40436249 0.86527405 32.49986267 0.86428833 C30.64126514 0.86360717 28.78266524 0.86545698 26.92407227 0.86962891 C24.07758231 0.87497169 21.23125061 0.86968504 18.38476562 0.86328125 C16.58072882 0.86394217 14.77669211 0.86522361 12.97265625 0.8671875 C12.11946304 0.86516327 11.26626984 0.86313904 10.38722229 0.86105347 C7.01114103 0.87445393 4.22494229 0.92501924 1 2 Z " fill="#FDFCFB" transform="translate(429,256)"/>
<path d="M0 0 C1.68300669 1.68300669 1.22809077 3.82008727 1.31640625 6.12890625 C1.35830078 7.16337891 1.40019531 8.19785156 1.44335938 9.26367188 C1.48267578 10.35228516 1.52199219 11.44089844 1.5625 12.5625 C1.60568359 13.65498047 1.64886719 14.74746094 1.69335938 15.87304688 C1.79982068 18.58189564 1.90183516 21.29083992 2 24 C3.670625 24.185625 3.670625 24.185625 5.375 24.375 C9 25 9 25 11 27 C11.26991906 29.68839385 11.08737357 32.29141936 11 35 C8.03 35.66 5.06 36.32 2 37 C1.96241577 38.40076782 1.96241577 38.40076782 1.92407227 39.82983398 C1.82913072 43.28325189 1.72988742 46.7364896 1.62768555 50.18969727 C1.58428187 51.68639269 1.54261087 53.18313939 1.50268555 54.67993164 C1.44511384 56.82714312 1.38138284 58.97409521 1.31640625 61.12109375 C1.27974854 62.4145874 1.24309082 63.70808105 1.20532227 65.04077148 C1 68 1 68 0 69 C-1.8267034 69.26013181 -3.66232907 69.45923072 -5.5 69.625 C-6.5003125 69.72039062 -7.500625 69.81578125 -8.53125 69.9140625 C-9.3459375 69.94242187 -10.160625 69.97078125 -11 70 C-12.73956658 68.26043342 -12.37190386 65.8063378 -12.5625 63.4375 C-12.64628906 62.42558594 -12.73007812 61.41367188 -12.81640625 60.37109375 C-12.87699219 59.58863281 -12.93757812 58.80617187 -13 58 C-15.86901927 56.95016221 -15.86901927 56.95016221 -18.4375 56.625 C-21.29173415 55.92884533 -22.85453886 54.9865381 -25 53 C-25 52.34 -25 51.68 -25 51 C-25.66 51 -26.32 51 -27 51 C-26.67 50.34 -26.34 49.68 -26 49 C-25.52949219 49.37253906 -25.05898438 49.74507812 -24.57421875 50.12890625 C-23.95160156 50.60199219 -23.32898438 51.07507813 -22.6875 51.5625 C-21.76517578 52.27599609 -21.76517578 52.27599609 -20.82421875 53.00390625 C-20.22222656 53.33261719 -19.62023437 53.66132813 -19 54 C-15.26360784 52.75453595 -14.81243487 51.36595047 -13 48 C-13.721875 47.7525 -14.44375 47.505 -15.1875 47.25 C-21.87085254 44.27962109 -25.28776852 39.64866082 -28 33 C-28.63334898 29.93958375 -28.8506057 27.13728032 -29 24 C-24.71 24 -20.42 24 -16 24 C-16 21.69 -16 19.38 -16 17 C-27.88 17 -39.76 17 -52 17 C-52 16.67 -52 16.34 -52 16 C-39.13 15.67 -26.26 15.34 -13 15 C-13 10.38 -13 5.76 -13 1 C-3.73897059 -1.31525735 -3.73897059 -1.31525735 0 0 Z M-10 1 C-10 23.11 -10 45.22 -10 68 C-7.03 68 -4.06 68 -1 68 C-1 56.78 -1 45.56 -1 34 C2.3 34 5.6 34 9 34 C9 31.69 9 29.38 9 27 C5.7 27 2.4 27 -1 27 C-1 18.42 -1 9.84 -1 1 C-3.97 1 -6.94 1 -10 1 Z M-25 25 C-26.16499225 28.49497675 -26.01407187 29.96059877 -24.75 33.5 C-24.1725 34.655 -23.595 35.81 -23 37 C-22.566875 37.9075 -22.13375 38.815 -21.6875 39.75 C-19.53642162 42.6181045 -17.26465747 43.62158907 -14 45 C-11.95024022 42.95024022 -12.72407358 38.92897437 -12.6875 36.125 C-12.65849609 35.39152344 -12.62949219 34.65804687 -12.59960938 33.90234375 C-12.5329804 29.56834511 -12.5329804 29.56834511 -14.75390625 26.00390625 C-18.3257797 24.40743412 -21.11981408 24.8059907 -25 25 Z " fill="#FBFBFB" transform="translate(618,160)"/>
<path d="M0 0 C2.97 0 5.94 0 9 0 C9.2475 1.216875 9.495 2.43375 9.75 3.6875 C10.79377702 7.69334692 11.89070203 10.12389938 15 13 C19.80419483 15.79635029 24.83084752 17.97487586 30 20 C29.01 21.98 28.02 23.96 27 26 C18.56540214 25.68760749 11.86195615 22.06107551 5.875 16.125 C5.25625 15.42375 4.6375 14.7225 4 14 C3.13375 15.299375 3.13375 15.299375 2.25 16.625 C-1.96908233 21.71699592 -9.18951576 25.61733468 -15.76171875 26.27734375 C-18 26 -18 26 -19.8125 24.1875 C-21 22 -21 22 -21 19 C-20.34773438 18.82984375 -19.69546875 18.6596875 -19.0234375 18.484375 C-12.2807885 16.61473191 -7.20289542 14.73873485 -2.6875 9.125 C-0.98306362 5.96863634 -0.33794368 3.54840869 0 0 Z " fill="#5E5E5E" transform="translate(529,202)"/>
<path d="M0 0 C2.62506802 -0.02690844 5.24986173 -0.04679404 7.875 -0.0625 C8.62136719 -0.07087891 9.36773437 -0.07925781 10.13671875 -0.08789062 C15.7734375 -0.11328125 15.7734375 -0.11328125 18 1 C18.03070873 16.58332438 18.05101505 32.16664947 18.0625 47.75 C18.06335602 48.90327034 18.06421204 50.05654068 18.06509399 51.24475861 C18.09127246 91.17765502 17.72267525 131.0721923 17 171 C45.38 171 73.76 171 103 171 C103 158.13 103 145.26 103 132 C103.33 132 103.66 132 104 132 C104 145.2 104 158.4 104 172 C74.96 172 45.92 172 16 172 C15.8297749 154.91669525 15.66161408 137.83338631 15.5 120.75 C15.48218412 118.86729527 15.48218412 118.86729527 15.46400833 116.94655609 C15.10307068 78.62971053 14.83837061 40.31859776 15 2 C9.72 2 4.44 2 -1 2 C-0.67 1.34 -0.34 0.68 0 0 Z " fill="#DEDEDE" transform="translate(103,54)"/>
<path d="M0 0 C1.1604483 -0.01814758 2.32089661 -0.03629517 3.51651001 -0.05499268 C4.91186226 -0.08778824 4.91186226 -0.08778824 6.33540344 -0.12124634 C8.67398071 0.07928467 8.67398071 0.07928467 12.67398071 2.07928467 C12.67398071 7.68928467 12.67398071 13.29928467 12.67398071 19.07928467 C11.68398071 19.07928467 10.69398071 19.07928467 9.67398071 19.07928467 C9.67398071 13.79928467 9.67398071 8.51928467 9.67398071 3.07928467 C-31.24601929 3.07928467 -72.16601929 3.07928467 -114.32601929 3.07928467 C-114.32601929 8.35928467 -114.32601929 13.63928467 -114.32601929 19.07928467 C-99.80601929 19.07928467 -85.28601929 19.07928467 -70.32601929 19.07928467 C-70.32601929 19.40928467 -70.32601929 19.73928467 -70.32601929 20.07928467 C-76.85880715 20.10455469 -83.3915825 20.12211759 -89.92440796 20.13421631 C-92.1486966 20.13925783 -94.37298192 20.14609089 -96.59725952 20.15472412 C-99.78680237 20.16679765 -102.97630158 20.17251463 -106.16586304 20.17694092 C-107.66741188 20.18468285 -107.66741188 20.18468285 -109.19929504 20.19258118 C-110.1201741 20.19265671 -111.04105316 20.19273224 -111.98983765 20.19281006 C-113.21228432 20.19614098 -113.21228432 20.19614098 -114.45942688 20.19953918 C-116.32601929 20.07928467 -116.32601929 20.07928467 -117.32601929 19.07928467 C-117.4526015 16.4210581 -117.51122143 13.80041043 -117.51351929 11.14178467 C-117.52576538 10.3999292 -117.53801147 9.65807373 -117.55062866 8.89373779 C-117.55590406 6.95414837 -117.44790831 5.01504757 -117.32601929 3.07928467 C-114.89535546 0.64862084 -114.28910818 0.82383937 -110.95899963 0.80081177 C-110.04106628 0.78964828 -109.12313293 0.7784848 -108.17738342 0.76698303 C-107.16706558 0.76482285 -106.15674774 0.76266266 -105.11581421 0.76043701 C-104.05375763 0.75039139 -102.99170105 0.74034576 -101.89746094 0.72999573 C-98.36714227 0.69897795 -94.83690055 0.68206446 -91.30648804 0.66522217 C-88.85183563 0.64650862 -86.39718964 0.62693506 -83.94255066 0.60653687 C-77.45875895 0.55504346 -70.97494598 0.51553938 -64.49105835 0.47839355 C-57.936641 0.43866555 -51.38231639 0.38729373 -44.82797241 0.33709717 C-33.1412279 0.24981432 -21.45448592 0.1628074 -9.76751709 0.11218262 C-6.51083982 0.09704202 -3.25604299 0.06539072 0 0 Z " fill="#F3EAD9" transform="translate(363.3260192871094,45.92071533203125)"/>
<path d="M0 0 C0.33 0 0.66 0 1 0 C1.33 55.77 1.66 111.54 2 169 C37.64 169 73.28 169 110 169 C110 163.72 110 158.44 110 153 C110.33 153 110.66 153 111 153 C111 158.61 111 164.22 111 170 C74.04 170 37.08 170 -1 170 C-1.08753316 128.15914832 -0.95078447 86.33767194 -0.5 44.5 C-0.48804218 43.38976723 -0.47608437 42.27953445 -0.46376419 41.13565826 C-0.31549971 27.42369882 -0.16086518 13.71181722 0 0 Z " fill="#F5EDE0" transform="translate(412,240)"/>
<path d="M0 0 C15.51 0 31.02 0 47 0 C47 14.19 47 28.38 47 43 C31.49 43 15.98 43 0 43 C0 28.81 0 14.62 0 0 Z M3 3 C2.91138008 5.8116338 2.88477645 8.59858255 2.90234375 11.41015625 C2.9037587 12.25219101 2.90517365 13.09422577 2.90663147 13.96177673 C2.91224737 16.66205335 2.92480252 19.36224828 2.9375 22.0625 C2.94251295 23.88867068 2.94707621 25.71484266 2.95117188 27.54101562 C2.96222196 32.02737542 2.97949721 36.51367384 3 41 C7.43934021 42.10271722 11.78334488 42.14494109 16.328125 42.1328125 C17.51254181 42.13424759 17.51254181 42.13424759 18.72088623 42.13571167 C20.3816333 42.13638973 22.04238308 42.13456163 23.703125 42.13037109 C26.25526798 42.12498889 28.80723726 42.13034331 31.359375 42.13671875 C32.97395872 42.13605846 34.58854234 42.13477832 36.203125 42.1328125 C37.35303925 42.13584885 37.35303925 42.13584885 38.52618408 42.13894653 C42.05654429 42.44903515 42.05654429 42.44903515 45 41 C45.08865208 38.1156618 45.11521296 35.25537842 45.09765625 32.37109375 C45.0962413 31.50686295 45.09482635 30.64263214 45.09336853 29.75221252 C45.08775239 26.98060708 45.07519719 24.2090812 45.0625 21.4375 C45.05748708 19.5631522 45.05292381 17.68880315 45.04882812 15.81445312 C45.03777772 11.20960456 45.0205023 6.60481579 45 2 C39.17928378 1.97535362 33.35859766 1.9571657 27.5378418 1.94506836 C25.55606559 1.94002733 23.57429311 1.93319462 21.5925293 1.92456055 C18.75047891 1.91248485 15.90847753 1.90676955 13.06640625 1.90234375 C12.17474258 1.89718246 11.28307892 1.89202118 10.36439514 1.88670349 C6.36445809 1.47939985 6.36445809 1.47939985 3 3 Z " fill="#FBF8F2" transform="translate(342,256)"/>
<path d="M0 0 C0.66 0 1.32 0 2 0 C2.89623988 38.41421735 3.27064018 76.82270855 3.51740873 115.24532521 C3.5679827 123.09874878 3.62243199 130.95214434 3.67708123 138.80554044 C3.78879047 154.87033418 3.8960302 170.93515418 4 187 C3.34 187 2.68 187 2 187 C1.12333752 174.38886839 0.79664555 161.81876505 0.68359375 149.1796875 C0.66283212 147.17593605 0.6417879 145.17218752 0.6204834 143.16844177 C0.56513183 137.83678893 0.51553522 132.50509804 0.46757126 127.17337418 C0.43740614 123.86470494 0.40560718 120.55605518 0.37332153 117.24740601 C-0.00620058 78.16429814 -0.12960713 39.08463324 0 0 Z " fill="#F7F7F7" transform="translate(100,55)"/>
<path d="M0 0 C2.64 0 5.28 0 8 0 C8 14.52 8 29.04 8 44 C5.36 44 2.72 44 0 44 C0 29.48 0 14.96 0 0 Z " fill="#595959" transform="translate(548,161)"/>
<path d="M0 0 C14.52 0 29.04 0 44 0 C44 14.19 44 28.38 44 43 C29.48 43 14.96 43 0 43 C0 28.81 0 14.62 0 0 Z M2 4 C1.82474945 6.79684797 1.76856811 9.4932808 1.8046875 12.2890625 C1.8075174 13.10748627 1.81034729 13.92591003 1.81326294 14.76913452 C1.82447468 17.38790393 1.84958071 20.00633364 1.875 22.625 C1.88502853 24.39843257 1.8941546 26.17187049 1.90234375 27.9453125 C1.92441722 32.29700626 1.95895356 36.6484455 2 41 C5.28622918 42.64311459 8.90726651 41.99748737 12.5078125 41.87890625 C13.34843231 41.85529526 14.18905212 41.83168427 15.05514526 41.80735779 C17.7452662 41.73066362 20.4351034 41.64666417 23.125 41.5625 C24.94660061 41.50928506 26.76821514 41.45654463 28.58984375 41.40429688 C33.06007618 41.27504071 37.5300676 41.13923154 42 41 C42.02501955 37.05306991 42.04300863 33.10617158 42.05493164 29.15917969 C42.06233777 27.16860325 42.07505474 25.17804883 42.08789062 23.1875 C42.10589603 16.05736081 41.92522041 9.07423314 41 2 C35.76726669 1.95064176 30.53466824 1.91430051 25.30175781 1.89013672 C23.52080933 1.88006569 21.73987743 1.86640815 19.95898438 1.84912109 C17.40230217 1.82492087 14.84583815 1.81352816 12.2890625 1.8046875 C11.49005524 1.79436493 10.69104797 1.78404236 9.86782837 1.77340698 C5.46516544 1.59062032 5.46516544 1.59062032 2 4 Z " fill="#E7E7E7" transform="translate(241,256)"/>
<path d="M0 0 C0.33 0 0.66 0 1 0 C1.0154612 1.91346474 1.0154612 1.91346474 1.03123474 3.86558533 C1.12878616 15.85898203 1.23150241 27.85232474 1.33933926 39.84563351 C1.3946179 46.01222337 1.44804566 52.17881794 1.49731445 58.34545898 C1.54488529 64.29120223 1.59722517 70.23688575 1.65294075 76.18255806 C1.67339741 78.45645228 1.69210487 80.73036289 1.70907402 83.00428581 C1.73304499 86.17731563 1.76310917 89.35023136 1.79467773 92.52319336 C1.8004332 93.47337341 1.80618866 94.42355347 1.81211853 95.40252686 C1.43956008 99.52811177 1.43956008 99.52811177 3 103 C4.83132888 103.05079186 6.66457219 103.03547775 8.49609375 102.9921875 C10.16961914 102.96705078 10.16961914 102.96705078 11.87695312 102.94140625 C14.24690492 102.89720528 16.61672343 102.84514624 18.98632812 102.78515625 C20.10330078 102.77097656 21.22027344 102.75679688 22.37109375 102.7421875 C23.40161865 102.7201123 24.43214355 102.69803711 25.49389648 102.67529297 C26.32091064 102.78244629 27.1479248 102.88959961 28 103 C30.38422969 106.57634453 30.44854661 108.74418739 30.75 113 C30.84796875 114.2375 30.9459375 115.475 31.046875 116.75 C31 120 31 120 29 123 C27.02037621 123.36914349 27.02037621 123.36914349 24.54550171 123.36076355 C23.14042107 123.36694954 23.14042107 123.36694954 21.70695496 123.3732605 C20.67621353 123.36247467 19.64547211 123.35168884 18.58349609 123.34057617 C17.50055771 123.34101425 16.41761932 123.34145233 15.30186462 123.34190369 C11.70887456 123.33980736 8.11634643 123.31643613 4.5234375 123.29296875 C2.03765111 123.28737581 -0.44813857 123.28310429 -2.93392944 123.28010559 C-8.81653567 123.26980681 -14.69897033 123.24614324 -20.58150613 123.21605712 C-27.93451612 123.17926488 -35.28754657 123.16312887 -42.640625 123.14648438 C-55.76050149 123.11427785 -68.88024021 123.06362643 -82 123 C-82 122.67 -82 122.34 -82 122 C-45.7 122 -9.4 122 28 122 C28 116.39 28 110.78 28 105 C18.76 105 9.52 105 0 105 C0 70.35 0 35.7 0 0 Z " fill="#FFFFFF" transform="translate(495,288)"/>
<path d="M0 0 C-0.02734726 1.19338486 -0.05469452 2.38676971 -0.08287048 3.61631775 C-0.81903701 36.0891813 -1.2566073 68.55878069 -1.53222656 101.03857422 C-1.58385698 107.04852133 -1.63877856 113.05843847 -1.69335938 119.06835938 C-1.7986532 130.7122136 -1.90053426 142.35609462 -2 154 C-2.33 154 -2.66 154 -3 154 C-3 103.51 -3 53.02 -3 1 C-29.4 1 -55.8 1 -83 1 C-83 0.67 -83 0.34 -83 0 C-72.62118882 -0.15375278 -62.24231459 -0.30193433 -51.86332226 -0.4429636 C-47.04417243 -0.50862193 -42.22506575 -0.57621383 -37.40600586 -0.64819336 C-32.75712276 -0.71756043 -28.10819496 -0.78188927 -23.45919228 -0.84269524 C-21.68372368 -0.86680856 -19.90827896 -0.89275073 -18.132864 -0.92053413 C-15.65005605 -0.95907798 -13.16724347 -0.99117387 -10.68432617 -1.02172852 C-9.57841629 -1.04114754 -9.57841629 -1.04114754 -8.45016479 -1.06095886 C-5.33942779 -1.09329227 -2.9775389 -0.99251297 0 0 Z " fill="#F6EFE3" transform="translate(497,239)"/>
<path d="M0 0 C15.18 0 30.36 0 46 0 C46 0.33 46 0.66 46 1 C31.81 1 17.62 1 3 1 C2.93941406 4.98964844 2.87882812 8.97929687 2.81640625 13.08984375 C2.76524314 16.32198427 2.71334397 19.55411116 2.66095734 22.78623199 C2.60631222 26.16988092 2.55288692 29.55353784 2.50268555 32.93725586 C2.44405487 36.8423482 2.38064214 40.74734004 2.31640625 44.65234375 C2.29969376 45.8332811 2.28298126 47.01421844 2.26576233 48.23094177 C2.10589271 57.52820147 1.54749672 66.69255584 1 76 C18.82 76 36.64 76 55 76 C55 76.33 55 76.66 55 77 C36.85 77 18.7 77 0 77 C0 51.59 0 26.18 0 0 Z " fill="#F5EFE3" transform="translate(343,315)"/>
<path d="M0 0 C0 13.53 0 27.06 0 41 C-0.33 41 -0.66 41 -1 41 C-1.33 28.46 -1.66 15.92 -2 3 C-18.17 3 -34.34 3 -51 3 C-51.33 26.76 -51.66 50.52 -52 75 C-52.33 75 -52.66 75 -53 75 C-53 50.58 -53 26.16 -53 1 C-44.440625 0.835 -35.88125 0.67 -27.0625 0.5 C-23.00400757 0.42168945 -23.00400757 0.42168945 -18.86352539 0.34179688 C-16.73323582 0.30077363 -14.60294612 0.25975751 -12.47265625 0.21875 C-11.35499878 0.1971582 -10.23734131 0.17556641 -9.08581543 0.15332031 C-8.03019409 0.13301758 -6.97457275 0.11271484 -5.88696289 0.09179688 C-4.96540909 0.07403198 -4.04385529 0.05626709 -3.09437561 0.03796387 C-1 0 -1 0 0 0 Z " fill="#F0F0F0" transform="translate(224,241)"/>
<path d="M0 0 C1.32 0.33 2.64 0.66 4 1 C3.01 1.495 3.01 1.495 2 2 C2.33 25.76 2.66 49.52 3 74 C6.59414547 74.71882909 9.39807236 75.13927838 12.97387695 75.20532227 C14.41480461 75.2352401 14.41480461 75.2352401 15.88484192 75.26576233 C16.9089769 75.28247482 17.93311188 75.29918732 18.98828125 75.31640625 C20.57578438 75.3475779 20.57578438 75.3475779 22.19535828 75.37937927 C25.56767441 75.44463103 28.94006674 75.50364637 32.3125 75.5625 C34.60222134 75.6057084 36.89193505 75.64932343 39.18164062 75.69335938 C44.78768045 75.80028741 50.39379566 75.90209863 56 76 C56 76.33 56 76.66 56 77 C37.52 77 19.04 77 0 77 C0 51.59 0 26.18 0 0 Z " fill="#FFFFFF" transform="translate(242,316)"/>
<path d="M0 0 C0.33 0 0.66 0 1 0 C1.06058594 0.99902344 1.12117188 1.99804688 1.18359375 3.02734375 C1.26738281 4.31769531 1.35117187 5.60804688 1.4375 6.9375 C1.51871094 8.22527344 1.59992188 9.51304687 1.68359375 10.83984375 C1.64919188 13.86023957 1.64919188 13.86023957 3 15 C4.62066423 15.11760287 6.24631934 15.16729258 7.87109375 15.18945312 C8.90886963 15.20617065 9.94664551 15.22288818 11.01586914 15.2401123 C12.14500732 15.25368774 13.27414551 15.26726318 14.4375 15.28125 C16.16311157 15.30886414 16.16311157 15.30886414 17.92358398 15.33703613 C21.61566886 15.39600432 25.30780061 15.44873276 29 15.5 C33.8542706 15.56740293 38.70838419 15.64107191 43.5625 15.71875 C44.69163818 15.73232544 45.82077637 15.74590088 46.98413086 15.7598877 C48.02190674 15.77660522 49.05968262 15.79332275 50.12890625 15.81054688 C51.04744385 15.82307495 51.96598145 15.83560303 52.91235352 15.84851074 C55 16 55 16 56 17 C56.10007008 19.82256491 56.13875598 22.6152319 56.125 25.4375 C56.12886719 26.22705078 56.13273437 27.01660156 56.13671875 27.83007812 C56.12663067 33.74673867 56.12663067 33.74673867 55 36 C47.13294711 36.02319672 39.26590227 36.04095244 31.39882374 36.05181217 C27.74560651 36.05702497 24.09241272 36.06409347 20.43920898 36.07543945 C16.91196653 36.08632536 13.38474659 36.09228892 9.85748863 36.09487724 C7.86061739 36.09761703 5.86375517 36.10542001 3.86689758 36.11329651 C2.64600937 36.11337204 1.42512115 36.11344757 0.16723633 36.11352539 C-0.90531906 36.115746 -1.97787445 36.11796661 -3.08293152 36.12025452 C-5.83345618 36.00686568 -8.3236979 35.62385056 -11 35 C-11 34.67 -11 34.34 -11 34 C10.45 34 31.9 34 54 34 C54 28.39 54 22.78 54 17 C36.18 17 18.36 17 0 17 C0 11.39 0 5.78 0 0 Z " fill="#FEFEFD" transform="translate(344,374)"/>
<path d="M0 0 C0.33 0 0.66 0 1 0 C1 13.86 1 27.72 1 42 C0.67 42 0.34 42 0 42 C-0.02505615 41.21874756 -0.0501123 40.43749512 -0.07592773 39.63256836 C-0.19250203 36.06740383 -0.31494865 32.50246387 -0.4375 28.9375 C-0.47681641 27.70837891 -0.51613281 26.47925781 -0.55664062 25.21289062 C-0.59853516 24.01728516 -0.64042969 22.82167969 -0.68359375 21.58984375 C-0.73858032 19.94810181 -0.73858032 19.94810181 -0.79467773 18.27319336 C-1.01053397 14.83207018 -1.51239519 11.41323368 -2 8 C-21.14 7.67 -40.28 7.34 -60 7 C-60 32.41 -60 57.82 -60 84 C-60.33 84 -60.66 84 -61 84 C-61 58.26 -61 32.52 -61 6 C-41.2 6 -21.4 6 -1 6 C-1 4.35 -1 2.7 -1 1 C-0.67 0.67 -0.34 0.34 0 0 Z " fill="#DBDBDB" transform="translate(302,309)"/>
<path d="M0 0 C1.74064224 -0.02719116 1.74064224 -0.02719116 3.51644897 -0.05493164 C4.44604935 -0.07616089 5.37564972 -0.09739014 6.3334198 -0.1192627 C8.66952515 0.08374023 8.66952515 0.08374023 12.66952515 2.08374023 C12.66952515 7.69374023 12.66952515 13.30374023 12.66952515 19.08374023 C11.67952515 19.08374023 10.68952515 19.08374023 9.66952515 19.08374023 C9.66952515 13.47374023 9.66952515 7.86374023 9.66952515 2.08374023 C-31.58047485 2.08374023 -72.83047485 2.08374023 -115.33047485 2.08374023 C-115.33047485 1.75374023 -115.33047485 1.42374023 -115.33047485 1.08374023 C-101.082398 0.95263281 -86.83431493 0.82221961 -72.58622456 0.69258881 C-65.96931484 0.63236746 -59.35240726 0.5719296 -52.73550415 0.51098633 C-46.34236802 0.45211215 -39.94922681 0.39382056 -33.55608177 0.33592224 C-31.12462362 0.31380187 -28.69316732 0.29147635 -26.26171303 0.26893616 C-20.76973123 0.21808198 -15.27778219 0.16977546 -9.78570557 0.13037109 C-6.52309036 0.10639874 -3.26198928 0.06764574 0 0 Z " fill="#FEFEFE" transform="translate(363.3304748535156,45.916259765625)"/>
<path d="M0 0 C0.66 0 1.32 0 2 0 C2.58598934 7.38346563 1.59043535 12.0980117 -3 18 C-6.18289999 21.19261877 -9.51732241 24.13947064 -13 27 C-11.35 28.65 -9.7 30.3 -8 32 C-2.39013803 28.36925177 1.29309594 24.66944019 4.7734375 18.953125 C6 17 6 17 8 15 C9.98 17.97 11.96 20.94 14 24 C13.34 24.33 12.68 24.66 12 25 C9.375 24.0625 9.375 24.0625 7 23 C6.41992188 23.61488281 5.83984375 24.22976562 5.2421875 24.86328125 C-3.13284075 33.52853325 -3.13284075 33.52853325 -8 35 C-11.45839871 34.08454152 -13.79178761 31.76026549 -16 29 C-16.25 26.25 -16.25 26.25 -16 24 C-15.13375 23.649375 -14.2675 23.29875 -13.375 22.9375 C-6.39795214 18.93215771 -3.74623186 14.26332577 -1.625 6.5625 C-1.06505074 4.37960837 -0.51717255 2.19342006 0 0 Z " fill="#F7F7F7" transform="translate(577,184)"/>
<path d="M0 0 C0.99773438 0.02320313 1.99546875 0.04640625 3.0234375 0.0703125 C4.52777344 0.09738281 4.52777344 0.09738281 6.0625 0.125 C6.83335937 0.14820313 7.60421875 0.17140625 8.3984375 0.1953125 C9.51289248 2.42422245 9.56324036 3.72586356 9.5859375 6.1953125 C9.60011719 6.8965625 9.61429688 7.5978125 9.62890625 8.3203125 C9.3984375 10.1953125 9.3984375 10.1953125 7.3984375 12.1953125 C5.0859375 12.4609375 5.0859375 12.4609375 2.3984375 12.4453125 C1.068125 12.45304687 1.068125 12.45304687 -0.2890625 12.4609375 C-2.6015625 12.1953125 -2.6015625 12.1953125 -4.6015625 10.1953125 C-4.8671875 8.3203125 -4.8671875 8.3203125 -4.8515625 6.1953125 C-4.85671875 5.4940625 -4.861875 4.7928125 -4.8671875 4.0703125 C-4.41065152 0.84770557 -3.1060344 0.23318577 0 0 Z " fill="#F0F0F0" transform="translate(537.6015625,402.8046875)"/>
<path d="M0 0 C6.6 0 13.2 0 20 0 C20 2.31 20 4.62 20 7 C13.4 7 6.8 7 0 7 C0 4.69 0 2.38 0 0 Z " fill="#5A5A5A" transform="translate(574,165)"/>
<path d="M0 0 C2.35101344 1.80244364 2.89686881 3.21935419 3.28125 6.12890625 C3.4206966 9.65574309 3.30326835 12.30922209 1.875 15.5625 C0 17 0 17 -2.9375 17.5625 C-6 17 -6 17 -8.375 15 C-10.62175128 10.85215148 -10.59566305 8.69084654 -10 4 C-7.32125099 -0.12115233 -4.78928253 -0.81519703 0 0 Z M-8 4 C-8.95798901 6.95379945 -9.06660794 8.70692508 -8.375 11.75 C-7.17761931 14.20787656 -7.17761931 14.20787656 -4.5625 15 C-2.00092352 15.2398079 -2.00092352 15.2398079 -0.25 13.8125 C1.17679775 11.74364326 1.77851357 10.51017955 2 8 C0.98854712 4.71916905 0.98854712 4.71916905 -1 2 C-4.961168 1.60909667 -4.961168 1.60909667 -8 4 Z " fill="#F1F1F1" transform="translate(518,174)"/>
<path d="M0 0 C18.48 0 36.96 0 56 0 C56 0.33 56 0.66 56 1 C38.51 1.33 21.02 1.66 3 2 C1.78306124 4.43387753 1.68040104 6.41838846 1.4375 9.125 C1.35371094 10.03507812 1.26992188 10.94515625 1.18359375 11.8828125 C1.12300781 12.58148438 1.06242187 13.28015625 1 14 C0.67 14 0.34 14 0 14 C0 9.38 0 4.76 0 0 Z " fill="#FFFEFE" transform="translate(317,65)"/>
<path d="M0 0 C2.64 0 5.28 0 8 0 C8 2.64 8 5.28 8 8 C5.36 8 2.72 8 0 8 C0 5.36 0 2.72 0 0 Z " fill="#595959" transform="translate(536,405)"/>
<path d="M0 0 C2.31 0 4.62 0 7 0 C7 2.64 7 5.28 7 8 C4.69 8 2.38 8 0 8 C0 5.36 0 2.72 0 0 Z " fill="#EEEEEE" transform="translate(529,178)"/>
<path d="M0 0 C0.226875 0.53625 0.45375 1.0725 0.6875 1.625 C2.6945121 5.25673618 5.22835295 9.11417648 9 11 C11.0374763 11.22858114 13.08040303 11.41024278 15.125 11.5625 C16.76855469 11.68818359 16.76855469 11.68818359 18.4453125 11.81640625 C19.28835938 11.87699219 20.13140625 11.93757812 21 12 C21 12.66 21 13.32 21 14 C19.10448978 14.05441656 17.2085208 14.09298035 15.3125 14.125 C14.25675781 14.14820313 13.20101562 14.17140625 12.11328125 14.1953125 C7.99825218 13.93715509 5.18748267 13.32516182 2.3828125 10.1953125 C1.96773438 9.51210937 1.55265625 8.82890625 1.125 8.125 C0.69445312 7.44695312 0.26390625 6.76890625 -0.1796875 6.0703125 C-1.15888198 3.59901215 -0.89261848 2.4574558 0 0 Z " fill="#EFEFEF" transform="translate(500,186)"/>
<path d="M0 0 C2.467339 2.2206051 2.96152446 3.43569203 3.1875 6.75 C3.125625 7.4925 3.06375 8.235 3 9 C0.2160817 7.60804085 0.02101003 5.84424221 -1 3 C-2.65 3 -4.3 3 -6 3 C-6.66 4.65 -7.32 6.3 -8 8 C-8.33 8 -8.66 8 -9 8 C-8.74438677 5.6568787 -8.40729228 3.32156597 -8 1 C-5.17116253 -0.41441874 -3.12623255 -0.31900332 0 0 Z " fill="#FAFAFA" transform="translate(518,174)"/>
<path d="M0 0 C0.66 0.33 1.32 0.66 2 1 C0.35 2.65 -1.3 4.3 -3 6 C-3.99 5.67 -4.98 5.34 -6 5 C-5.195625 4.360625 -4.39125 3.72125 -3.5625 3.0625 C-1.7249496 1.59396498 -1.7249496 1.59396498 0 0 Z " fill="#F3F3F3" transform="translate(526,193)"/>
</svg>
